<?xml version="1.0" encoding="utf-8"?>
<!-- Generator: Adobe Illustrator 23.0.1, SVG Export Plug-In . SVG Version: 6.00 Build 0)  -->
<svg version="1.1" id="Livello_1" xmlns="http://www.w3.org/2000/svg" xmlns:xlink="http://www.w3.org/1999/xlink" x="0px" y="0px"
	 viewBox="0 0 155.91 51.02" style="enable-background:new 0 0 155.91 51.02;" xml:space="preserve">
<style type="text/css">
	.st0{fill:#FFFFFF;}
	.st1{fill:#010101;}
</style>
<g>
	<path class="st0" d="M152.79,30.52c0.59-1.26,0.93-2.69,0.93-4.29c0-2.88-1.13-5.37-3.26-7.2c-1.93-1.65-4.37-2.49-7.25-2.49
		c-3.17,0-6.1,0.99-8.78,2.91c-0.2-0.43-0.44-0.83-0.76-1.2c-0.29-0.33-0.62-0.62-0.97-0.87l0.98-3.31c0.51-1.72,0.08-3.58-1.13-4.9
		c-0.98-1.06-2.35-1.65-3.76-1.65c-0.35,0-0.69,0.03-1.03,0.1l-7.04,1.45c-0.96,0.2-1.82,0.67-2.51,1.33
		c-0.21-0.44-0.48-0.86-0.82-1.23c-0.98-1.06-2.35-1.65-3.76-1.65c-0.35,0-0.69,0.03-1.03,0.1l-7.04,1.45
		c-1.84,0.38-3.32,1.73-3.86,3.53l-1.47,4.89c-0.44,0.12-0.86,0.3-1.24,0.53c-1.66-0.98-3.61-1.48-5.83-1.48
		c-3.86,0-7.37,1.46-10.5,4.3c-0.44-0.64-0.95-1.24-1.56-1.78c-1.91-1.69-4.4-2.58-7.2-2.58c-3.7,0-7.13,1.37-10.24,4.04
		c-0.08-0.38-0.2-0.75-0.36-1.1c1.45-1.81,2.4-4.44,2.4-8.09c0-1.92-1.08-3.68-2.8-4.55c-0.72-0.37-1.51-0.55-2.3-0.55
		c-1,0-2,0.3-2.85,0.87c-0.17-0.08-0.38-0.2-0.64-0.36c-0.82-0.51-1.75-0.77-2.69-0.77c-0.62,0-1.24,0.11-1.83,0.34
		c-1.49,0.57-2.62,1.81-3.07,3.34c-0.01,0.03-0.02,0.05-0.03,0.08c-0.9-1.46-2.17-2.93-3.94-4.31c-3.56-2.75-8.37-4.15-14.28-4.15
		c-6.74,0-12.6,1.71-17.41,5.09c-6.69,4.7-8.1,10.31-8.1,14.19c0,2.26,0.58,4.33,1.7,6.15c0.78,1.26,1.65,2.13,2.52,2.72
		c-1.17,0.18-2.43,0.7-4.12,1.66c-1.72,0.98-2.78,1.74-3.55,2.52c-1.32,1.35-2.05,3.11-2.05,4.94c0,2.98,1.18,5.71,3.43,7.89
		c2.24,2.17,5.35,3.27,9.24,3.27c3.1,0,6.13-0.71,9.01-2.09c2.24-1.08,4.24-2.5,5.97-4.25c0.48,1.12,1.14,2.13,1.97,3.02
		c2.02,2.17,4.75,3.32,7.89,3.32c2.64,0,5.22-0.8,7.65-2.38c0.14-0.09,0.28-0.19,0.42-0.28c1.63,1.75,3.74,2.72,6.06,2.72
		c2.45,0,4.99-1.08,7.99-3.46c2.39,2.22,5.45,3.4,8.91,3.4c2.91,0,5.71-0.74,8.35-2.2c0.75-0.41,1.51-0.9,2.29-1.45
		c2.41,2.38,5.59,3.65,9.24,3.65c3.06,0,5.91-0.76,8.47-2.27c0.41-0.24,0.82-0.51,1.24-0.79c1.84,1.98,4.29,3.06,7.01,3.06
		c2.45,0,4.93-0.8,7.39-2.4c0.28-0.18,0.56-0.37,0.84-0.57c1.83,1.92,4.24,2.97,6.93,2.97c2.45,0,4.93-0.8,7.39-2.4
		c0.53-0.34,1.07-0.73,1.63-1.16c2.39,2.32,5.54,3.56,9.15,3.56c3.05,0,5.9-0.76,8.47-2.27c2.16-1.27,4.45-3.11,7-5.62
		c0.97-0.96,1.52-2.27,1.52-3.64v-3.03C155.72,33.15,154.57,31.36,152.79,30.52z M16.19,32.47c-0.39-0.73-0.91-1.37-1.55-1.87
		c0.62-0.07,1.28-0.22,2.04-0.48C16.53,31.01,16.36,31.78,16.19,32.47z M44.44,28.59c-0.01,0.05-0.03,0.09-0.04,0.14
		c-0.01-0.03-0.02-0.06-0.03-0.09C44.4,28.62,44.42,28.6,44.44,28.59z M72.55,35.02c-0.02,0-0.04,0-0.06-0.01
		c-0.06-0.08-0.11-0.2-0.16-0.33c0.3,0.1,0.61,0.17,0.93,0.21C72.97,35,72.74,35.02,72.55,35.02z"/>
	<g>
		<path class="st1" d="M34.63,12.94c-0.56-0.6-1.05-0.9-1.45-0.9c-1.42,0-3.03,0.63-4.81,1.88s-3.14,2.91-4.07,4.96
			c-0.93,2.05-1.68,5.33-2.25,9.86c-0.57,4.53-1.56,7.95-2.97,10.27s-3.02,3.48-4.85,3.48c-0.86,0-1.57-0.32-2.14-0.96
			s-0.84-1.46-0.84-2.44c0-0.19,0.09-0.81,0.28-1.85c0.18-1.04,0.28-1.63,0.28-1.79c0-0.67-0.29-1-0.87-1
			c-0.46,0-1.3,0.35-2.53,1.05c-1.23,0.7-2.04,1.26-2.44,1.66c-0.4,0.41-0.59,0.86-0.59,1.37c0,1.6,0.63,3.01,1.89,4.23
			s3.15,1.83,5.68,1.83c2.34,0,4.6-0.53,6.79-1.58c2.19-1.05,4.06-2.52,5.6-4.4s2.63-3.88,3.26-6c0.62-2.12,1.18-4.96,1.68-8.54
			s0.99-6.03,1.48-7.37C32.24,15.37,33.2,14.11,34.63,12.94z"/>
		<path class="st1" d="M60.6,11.33c-0.93,0.69-1.87,1.03-2.82,1.03c-0.84,0-1.96-0.43-3.35-1.29c-0.56,1.93-1.35,3.67-2.37,5.22
			c1.07,0.92,2.36,1.37,3.88,1.37C59.05,17.65,60.6,15.55,60.6,11.33z"/>
		<path class="st1" d="M145.85,39.29c-1.05,0.62-2.16,0.94-3.32,0.94c-2.97,0-4.81-1.71-5.51-5.14c7.73-2.27,11.6-5.22,11.6-8.86
			c0-1.37-0.49-2.48-1.48-3.32s-2.29-1.27-3.93-1.27c-3.15,0-6.01,1.51-8.59,4.52c-2.35,2.75-3.62,5.79-3.83,9.12
			c-1.64,1.73-2.89,2.87-3.74,3.43c-0.88,0.57-1.77,0.86-2.67,0.86c-0.65,0-1.18-0.26-1.6-0.78c-0.41-0.52-0.62-1.19-0.62-2.02
			c0-1.21,0.3-2.85,0.92-4.9l1.76-5.91l4.09-0.32l0.87-4.06l-3.72,0.21l2.72-9.17l-7.04,1.45l-2.48,8.23l-2.51,0.11l-0.84,4.14
			l2.02-0.11l-1.12,3.99c-0.55,1.81-0.91,3.38-1.12,4.77c-1.68,1.78-2.95,2.95-3.82,3.51c-0.88,0.57-1.77,0.86-2.67,0.86
			c-0.65,0-1.18-0.26-1.6-0.78c-0.41-0.52-0.62-1.19-0.62-2.02c0-1.21,0.3-2.85,0.92-4.9l1.76-5.91l4.09-0.32l0.87-4.06l-3.72,0.21
			l2.72-9.17l-7.04,1.45l-2.48,8.23l-2.51,0.11l-0.84,4.14l2.02-0.11l-1.12,3.99c-0.54,1.8-0.9,3.36-1.12,4.73
			c-2.11,2.13-3.7,3.51-4.75,4.13c-1.05,0.62-2.16,0.94-3.32,0.94c-2.97,0-4.81-1.71-5.51-5.14c7.73-2.27,11.6-5.22,11.6-8.86
			c0-1.37-0.49-2.48-1.48-3.32s-2.29-1.27-3.93-1.27c-3.15,0-6.01,1.51-8.6,4.52c-2.35,2.74-3.61,5.77-3.83,9.09
			c-1.55,1.63-2.94,2.85-4.17,3.64c-1.26,0.82-2.6,1.23-4.02,1.23c-1.67,0-3.01-0.62-4.01-1.87c-1-1.25-1.5-2.92-1.5-5.01
			c0-2.43,0.53-4.59,1.6-6.49s2.24-2.85,3.52-2.85c0.54,0,0.98,0.24,1.31,0.71c0.32,0.47,0.49,1.1,0.49,1.87
			c0,0.18-0.05,0.66-0.16,1.44c-0.11,0.78-0.16,1.24-0.16,1.38c0,0.35,0.12,0.53,0.37,0.53c0.18,0,0.45-0.09,0.82-0.26l3.06-1.45
			c0.51-0.25,0.86-0.49,1.04-0.74s0.28-0.62,0.28-1.11c0-1.39-0.49-2.52-1.48-3.39s-2.26-1.31-3.82-1.31
			c-3.18,0-6.14,1.59-8.87,4.76c-2.38,2.77-3.72,5.75-4.03,8.95c-1.42,1.58-2.47,2.62-3.14,3.1c-0.69,0.5-1.38,0.75-2.07,0.75
			c-0.39,0-0.71-0.18-0.96-0.54s-0.38-0.83-0.38-1.41c0-1.46,0.54-3.89,1.63-7.3l2.64-8.25h-0.32l-6.7,1.4
			c-1.84,4.82-3.01,8.87-3.51,12.17v-0.09c-2.97,3.62-5.26,5.43-6.85,5.43c-1.2,0-1.79-0.75-1.79-2.27c0-0.3,0.09-0.99,0.28-2.08
			c0.18-1.09,0.28-2.07,0.28-2.95c0-1.58-0.36-2.9-1.07-3.94c-0.71-1.04-1.85-2.02-3.41-2.91c4.29-0.97,7.17-2.32,8.63-4.06
			c1.47-1.74,2.2-3.53,2.2-5.38c0-2.93-1.33-5.43-3.99-7.49s-6.39-3.08-11.17-3.08c-5.69,0-10.52,1.39-14.47,4.17
			c-3.96,2.78-5.93,6.12-5.93,10.02c0,1.3,0.31,2.46,0.94,3.47s1.32,1.52,2.1,1.52c0.49,0,1.41-0.29,2.74-0.88
			c1.34-0.59,2-1.11,2-1.57c0-0.51-0.34-0.94-1.03-1.29c-1.44-0.74-2.16-1.84-2.16-3.3c0-2.57,1.49-4.89,4.48-6.97
			S26.36,8.4,30.21,8.4c6.05,0,9.07,2.66,9.07,7.99c0,2.29-0.49,4.24-1.46,5.85c-0.98,1.62-2.29,2.43-3.94,2.43l-1.77-0.11
			c-0.76,0-1.13,0.52-1.13,1.56c0,0.56,0.33,0.87,0.98,0.92c1.07,0.05,1.61,0.9,1.61,2.53c0,1.02-0.25,2.49-0.75,4.4
			s-0.75,3.42-0.75,4.51c0,1.83,0.52,3.3,1.57,4.43c1.05,1.13,2.43,1.69,4.15,1.69c1.65,0,3.29-0.52,4.9-1.56
			c1.54-0.99,3.29-2.54,5.23-4.6c0,0.05-0.01,0.1-0.01,0.15c0,1.74,0.39,3.19,1.16,4.34c0.77,1.15,1.72,1.73,2.85,1.73
			c2.02,0,5.07-2.14,9.14-6.4c0.27,1.61,0.96,2.98,2.1,4.12c1.48,1.49,3.37,2.23,5.66,2.23c2.04,0,3.99-0.52,5.87-1.56
			c1.87-1.04,3.93-2.66,6.18-4.88v-0.02c0.29,1.65,0.96,3.03,2.04,4.16c1.47,1.53,3.4,2.29,5.79,2.29c2.14,0,4.1-0.52,5.88-1.57
			c1.72-1.01,3.65-2.57,5.79-4.66c0.1,1.74,0.54,3.19,1.37,4.31c0.94,1.27,2.17,1.91,3.68,1.91c1.46,0,3-0.52,4.61-1.57
			c1.55-1.01,3.39-2.56,5.5-4.63c0.1,1.73,0.54,3.17,1.37,4.29c0.94,1.27,2.17,1.91,3.68,1.91c1.46,0,3-0.52,4.61-1.57
			c1.61-1.04,3.52-2.66,5.73-4.85c0.29,1.63,0.96,3.01,2.04,4.12c1.47,1.53,3.4,2.29,5.79,2.29c2.14,0,4.1-0.52,5.88-1.57
			c1.78-1.05,3.78-2.67,6.01-4.87v-3.03C148.49,37.28,146.9,38.66,145.85,39.29z M88.34,26.39c1.05-1.77,2.16-2.65,3.32-2.65
			c1.23,0,1.85,0.84,1.85,2.53c0,3.41-2.25,5.75-6.75,7.01C86.76,30.46,87.29,28.16,88.34,26.39z M138.38,26.39
			c1.05-1.77,2.16-2.65,3.32-2.65c1.23,0,1.85,0.84,1.85,2.53c0,3.41-2.25,5.75-6.75,7.01C136.8,30.46,137.33,28.16,138.38,26.39z"
			/>
	</g>
</g>
</svg>
